<mxfile host="65bd71144e">
    <diagram id="l2uHGObbPoaIB0Ttkwne" name="Page-1">
        <mxGraphModel dx="2795" dy="2493" grid="1" gridSize="10" guides="1" tooltips="1" connect="1" arrows="1" fold="1" page="1" pageScale="1" pageWidth="850" pageHeight="1100" background="#838A88" math="0" shadow="0">
            <root>
                <mxCell id="0"/>
                <mxCell id="1" parent="0"/>
                <mxCell id="77" style="edgeStyle=none;html=1;exitX=1;exitY=0.5;exitDx=0;exitDy=0;strokeColor=#FFFFCC;fontColor=#FFFFFF;startArrow=ERmandOne;startFill=0;endArrow=ERoneToMany;endFill=0;" edge="1" parent="1" source="2" target="3">
                    <mxGeometry relative="1" as="geometry"/>
                </mxCell>
                <UserObject label="Departamento" lucidchartObjectId="y1Af4tkN~yDY" id="2">
                    <mxCell style="html=1;overflow=block;blockSpacing=1;whiteSpace=wrap;fontSize=16.7;align=center;spacing=3.8;strokeOpacity=100;rounded=1;absoluteArcSize=1;arcSize=2;strokeWidth=2.3;strokeColor=#FFF194;" vertex="1" parent="1">
                        <mxGeometry x="-160" y="45" width="110" height="60" as="geometry"/>
                    </mxCell>
                </UserObject>
                <mxCell id="79" style="edgeStyle=none;html=1;exitX=0.5;exitY=0;exitDx=0;exitDy=0;strokeColor=#FFFFCC;fontColor=#FFFFFF;startArrow=ERmandOne;startFill=0;endArrow=ERoneToMany;endFill=0;entryX=0.111;entryY=1.059;entryDx=0;entryDy=0;entryPerimeter=0;" edge="1" parent="1" source="3" target="7">
                    <mxGeometry relative="1" as="geometry">
                        <Array as="points">
                            <mxPoint x="43" y="-20"/>
                            <mxPoint x="40" y="-110"/>
                            <mxPoint x="43" y="-150"/>
                        </Array>
                    </mxGeometry>
                </mxCell>
                <mxCell id="134" style="edgeStyle=none;html=1;exitX=0.25;exitY=1;exitDx=0;exitDy=0;entryX=0.25;entryY=0;entryDx=0;entryDy=0;strokeColor=#FFFFCC;strokeWidth=1;fontColor=#FFFFFF;startArrow=ERmandOne;startFill=0;endArrow=ERoneToMany;endFill=0;" edge="1" parent="1" source="3" target="13">
                    <mxGeometry relative="1" as="geometry"/>
                </mxCell>
                <UserObject label="ciudad" lucidchartObjectId="E1Afta9H0lmT" id="3">
                    <mxCell style="html=1;overflow=block;blockSpacing=1;whiteSpace=wrap;fontSize=16.7;align=center;spacing=3.8;strokeOpacity=100;rounded=1;absoluteArcSize=1;arcSize=9;strokeWidth=2.3;strokeColor=#FFF194;" vertex="1" parent="1">
                        <mxGeometry x="30" y="45" width="120" height="52.5" as="geometry"/>
                    </mxCell>
                </UserObject>
                <mxCell id="76" style="edgeStyle=none;html=1;exitX=1;exitY=0.5;exitDx=0;exitDy=0;entryX=0.5;entryY=1;entryDx=0;entryDy=0;strokeColor=#FFFFCC;fontColor=#FFFFFF;startArrow=ERmandOne;startFill=0;endArrow=ERoneToMany;endFill=0;" edge="1" parent="1" source="4" target="2">
                    <mxGeometry relative="1" as="geometry"/>
                </mxCell>
                <UserObject label="Pais" lucidchartObjectId="H1AfQk4N_Saf" id="4">
                    <mxCell style="html=1;overflow=block;blockSpacing=1;whiteSpace=wrap;fontSize=16.7;align=center;spacing=3.8;strokeOpacity=100;rounded=1;absoluteArcSize=1;arcSize=9;strokeWidth=2.3;strokeColor=#FFF194;" vertex="1" parent="1">
                        <mxGeometry x="-180" y="160" width="120" height="45" as="geometry"/>
                    </mxCell>
                </UserObject>
                <mxCell id="86" style="edgeStyle=none;html=1;exitX=1;exitY=0.25;exitDx=0;exitDy=0;entryX=0.006;entryY=0.636;entryDx=0;entryDy=0;entryPerimeter=0;strokeColor=#FFFFCC;fontColor=#FFFFFF;startArrow=ERmandOne;startFill=0;endArrow=ERoneToMany;endFill=0;" edge="1" parent="1" source="7" target="19">
                    <mxGeometry relative="1" as="geometry"/>
                </mxCell>
                <mxCell id="88" style="edgeStyle=none;html=1;exitX=1;exitY=1;exitDx=0;exitDy=0;entryX=0;entryY=0.5;entryDx=0;entryDy=0;strokeColor=#FFFFCC;fontColor=#FFFFFF;startArrow=ERmandOne;startFill=0;endArrow=ERoneToMany;endFill=0;" edge="1" parent="1" source="7" target="87">
                    <mxGeometry relative="1" as="geometry">
                        <Array as="points">
                            <mxPoint x="220" y="-120"/>
                        </Array>
                    </mxGeometry>
                </mxCell>
                <mxCell id="92" style="edgeStyle=none;html=1;exitX=0.75;exitY=1;exitDx=0;exitDy=0;entryX=0.5;entryY=0;entryDx=0;entryDy=0;strokeColor=#FFFFCC;fontColor=#FFFFFF;startArrow=ERmandOne;startFill=0;endArrow=ERoneToMany;endFill=0;" edge="1" parent="1" source="7" target="10">
                    <mxGeometry relative="1" as="geometry">
                        <Array as="points">
                            <mxPoint x="170" y="-90"/>
                        </Array>
                    </mxGeometry>
                </mxCell>
                <mxCell id="113" style="edgeStyle=none;html=1;exitX=1;exitY=0;exitDx=0;exitDy=0;entryX=0;entryY=0.75;entryDx=0;entryDy=0;strokeColor=#FFF194;fontSize=12;fontColor=#FFFFFF;endArrow=ERmany;endFill=0;" edge="1" parent="1" source="7" target="55">
                    <mxGeometry relative="1" as="geometry"/>
                </mxCell>
                <mxCell id="127" style="edgeStyle=none;html=1;exitX=0.25;exitY=1;exitDx=0;exitDy=0;entryX=0;entryY=0.5;entryDx=0;entryDy=0;strokeColor=#FFFFCC;strokeWidth=1;fontColor=#FFFFFF;startArrow=ERmandOne;startFill=0;endArrow=ERoneToMany;endFill=0;" edge="1" parent="1" source="7" target="27">
                    <mxGeometry relative="1" as="geometry">
                        <Array as="points">
                            <mxPoint x="290" y="120"/>
                            <mxPoint x="480" y="320"/>
                        </Array>
                    </mxGeometry>
                </mxCell>
                <mxCell id="139" style="edgeStyle=none;html=1;exitX=0;exitY=0.5;exitDx=0;exitDy=0;entryX=0.408;entryY=0.027;entryDx=0;entryDy=0;entryPerimeter=0;strokeColor=#37D606;strokeWidth=2;fontColor=#FFFFFF;startArrow=ERmandOne;startFill=0;endArrow=ERoneToMany;endFill=0;" edge="1" parent="1" source="7" target="16">
                    <mxGeometry relative="1" as="geometry">
                        <Array as="points">
                            <mxPoint x="-71" y="-220"/>
                        </Array>
                    </mxGeometry>
                </mxCell>
                <mxCell id="142" style="edgeStyle=none;html=1;exitX=0.5;exitY=0;exitDx=0;exitDy=0;strokeColor=#FFFFCC;strokeWidth=1;fontColor=#FFFFFF;startArrow=ERmandOne;startFill=0;endArrow=ERoneToMany;endFill=0;" edge="1" parent="1" source="7" target="35">
                    <mxGeometry relative="1" as="geometry"/>
                </mxCell>
                <UserObject label="&lt;span style=&quot;background-color: rgb(25, 22, 25);&quot;&gt;&lt;font color=&quot;#fdfcfc&quot;&gt;taller&lt;/font&gt;&lt;/span&gt;" lucidchartObjectId="81AfojI8KQGz" id="7">
                    <mxCell style="html=1;overflow=block;blockSpacing=1;whiteSpace=wrap;fontSize=16.7;align=center;spacing=3.8;strokeOpacity=100;rounded=1;absoluteArcSize=1;arcSize=9;strokeWidth=2.3;strokeColor=#FFF194;" vertex="1" parent="1">
                        <mxGeometry x="30" y="-270" width="120" height="90" as="geometry"/>
                    </mxCell>
                </UserObject>
                <mxCell id="91" style="edgeStyle=none;html=1;exitX=0;exitY=0.5;exitDx=0;exitDy=0;strokeColor=#FFFFCC;fontColor=#FFFFFF;startArrow=ERmandOne;startFill=0;endArrow=ERoneToMany;endFill=0;entryX=1;entryY=0.5;entryDx=0;entryDy=0;" edge="1" parent="1" source="8" target="10">
                    <mxGeometry relative="1" as="geometry">
                        <mxPoint x="450" y="140" as="targetPoint"/>
                        <Array as="points">
                            <mxPoint x="530" y="150"/>
                        </Array>
                    </mxGeometry>
                </mxCell>
                <mxCell id="133" style="edgeStyle=none;html=1;exitX=1;exitY=0.5;exitDx=0;exitDy=0;entryX=0.5;entryY=1;entryDx=0;entryDy=0;strokeColor=#FFFFCC;strokeWidth=1;fontColor=#FFFFFF;startArrow=ERmandOne;startFill=0;endArrow=ERoneToMany;endFill=0;" edge="1" parent="1" source="8" target="32">
                    <mxGeometry relative="1" as="geometry">
                        <Array as="points">
                            <mxPoint x="790" y="430"/>
                            <mxPoint x="1200" y="430"/>
                        </Array>
                    </mxGeometry>
                </mxCell>
                <UserObject label="TipoServicio" lucidchartObjectId="b3AfDdAyTASc" id="8">
                    <mxCell style="html=1;overflow=block;blockSpacing=1;whiteSpace=wrap;fontSize=16.7;align=center;spacing=3.8;strokeOpacity=100;rounded=1;absoluteArcSize=1;arcSize=9;strokeWidth=2.3;strokeColor=#FFF194;" vertex="1" parent="1">
                        <mxGeometry x="560" y="130" width="120" height="45" as="geometry"/>
                    </mxCell>
                </UserObject>
                <mxCell id="136" style="edgeStyle=none;html=1;exitX=0;exitY=0.25;exitDx=0;exitDy=0;entryX=0.68;entryY=-0.078;entryDx=0;entryDy=0;strokeColor=#FFFFCC;strokeWidth=1;fontColor=#FFFFFF;startArrow=ERmandOne;startFill=0;endArrow=ERoneToMany;endFill=0;entryPerimeter=0;" edge="1" parent="1" source="9" target="13">
                    <mxGeometry relative="1" as="geometry">
                        <Array as="points">
                            <mxPoint x="90" y="210"/>
                        </Array>
                    </mxGeometry>
                </mxCell>
                <mxCell id="137" style="edgeStyle=none;html=1;exitX=0.5;exitY=0;exitDx=0;exitDy=0;entryX=0;entryY=0.25;entryDx=0;entryDy=0;strokeColor=#37D606;strokeWidth=2;fontColor=#FFFFFF;startArrow=ERmandOne;startFill=0;endArrow=ERoneToMany;endFill=0;" edge="1" parent="1" source="9" target="101">
                    <mxGeometry relative="1" as="geometry">
                        <Array as="points">
                            <mxPoint x="230" y="110"/>
                            <mxPoint x="530" y="110"/>
                            <mxPoint x="530" y="-26"/>
                        </Array>
                    </mxGeometry>
                </mxCell>
                <mxCell id="138" style="edgeStyle=none;html=1;exitX=0.25;exitY=0;exitDx=0;exitDy=0;entryX=1;entryY=0.5;entryDx=0;entryDy=0;strokeColor=#37D606;strokeWidth=2;fontColor=#FFFFFF;startArrow=ERmandOne;startFill=0;endArrow=ERoneToMany;endFill=0;" edge="1" parent="1" source="9" target="16">
                    <mxGeometry relative="1" as="geometry">
                        <Array as="points">
                            <mxPoint x="200" y="40"/>
                            <mxPoint x="190" y="-90"/>
                        </Array>
                    </mxGeometry>
                </mxCell>
                <mxCell id="144" style="edgeStyle=none;html=1;exitX=0.75;exitY=0;exitDx=0;exitDy=0;entryX=1;entryY=0.5;entryDx=0;entryDy=0;strokeColor=#FFFFCC;strokeWidth=1;fontColor=#FFFFFF;startArrow=ERmandOne;startFill=0;endArrow=ERoneToMany;endFill=0;" edge="1" parent="1" source="9" target="143">
                    <mxGeometry relative="1" as="geometry">
                        <Array as="points">
                            <mxPoint x="230" y="-10"/>
                            <mxPoint x="150" y="-10"/>
                            <mxPoint x="-10"/>
                        </Array>
                    </mxGeometry>
                </mxCell>
                <UserObject label="Proveedor" lucidchartObjectId="m3AfNLiYfdGC" id="9">
                    <mxCell style="html=1;overflow=block;blockSpacing=1;whiteSpace=wrap;fontSize=16.7;align=center;spacing=3.8;strokeOpacity=100;rounded=1;absoluteArcSize=1;arcSize=9;strokeWidth=2.3;strokeColor=#FFF194;" vertex="1" parent="1">
                        <mxGeometry x="180" y="185" width="110" height="45" as="geometry"/>
                    </mxCell>
                </UserObject>
                <UserObject label="serviciosTaller" lucidchartObjectId="o3AfUsYn.w-y" id="10">
                    <mxCell style="html=1;overflow=block;blockSpacing=1;whiteSpace=wrap;fontSize=16.7;align=center;spacing=3.8;strokeOpacity=100;rounded=1;absoluteArcSize=1;arcSize=9;strokeWidth=2.3;strokeColor=#FFF194;" vertex="1" parent="1">
                        <mxGeometry x="270" y="-22.5" width="120" height="45" as="geometry"/>
                    </mxCell>
                </UserObject>
                <UserObject label="&lt;font color=&quot;#ffffff&quot;&gt;ciudadProveedor&lt;/font&gt;" lucidchartObjectId="I4AfiSXeFsRm" id="13">
                    <mxCell style="html=1;overflow=block;blockSpacing=1;whiteSpace=wrap;fontSize=16.7;fontColor=#333333;align=center;spacing=3.8;strokeColor=#FFF194;strokeOpacity=100;rounded=1;absoluteArcSize=1;arcSize=9;strokeWidth=2.3;" vertex="1" parent="1">
                        <mxGeometry x="-10" y="295" width="140" height="45" as="geometry"/>
                    </mxCell>
                </UserObject>
                <UserObject label="ProveedorTaller" lucidchartObjectId="44AfrzosvBnp" id="16">
                    <mxCell style="html=1;overflow=block;blockSpacing=1;whiteSpace=wrap;fontSize=16.7;align=center;spacing=3.8;strokeOpacity=100;rounded=1;absoluteArcSize=1;arcSize=9;strokeWidth=2.3;strokeColor=#FFF194;" vertex="1" parent="1">
                        <mxGeometry x="-120" y="-125" width="120" height="55" as="geometry"/>
                    </mxCell>
                </UserObject>
                <mxCell id="111" style="edgeStyle=none;html=1;exitX=1;exitY=0.25;exitDx=0;exitDy=0;strokeColor=#37D606;fontColor=#FFFFFF;startArrow=ERmandOne;startFill=0;endArrow=ERoneToMany;endFill=0;fillColor=#60a917;strokeWidth=2;" edge="1" parent="1" source="19" target="50">
                    <mxGeometry relative="1" as="geometry">
                        <Array as="points">
                            <mxPoint x="890" y="-266"/>
                            <mxPoint x="1000" y="-260"/>
                            <mxPoint x="1056" y="-260"/>
                        </Array>
                    </mxGeometry>
                </mxCell>
                <mxCell id="132" style="edgeStyle=none;html=1;exitX=1;exitY=0;exitDx=0;exitDy=0;entryX=0.898;entryY=0.033;entryDx=0;entryDy=0;entryPerimeter=0;strokeColor=#FFFFCC;strokeWidth=1;fontColor=#FFFFFF;startArrow=ERmandOne;startFill=0;endArrow=ERoneToMany;endFill=0;" edge="1" parent="1" source="19" target="32">
                    <mxGeometry relative="1" as="geometry">
                        <Array as="points">
                            <mxPoint x="740" y="-530"/>
                            <mxPoint x="1383" y="-510"/>
                            <mxPoint x="1380" y="-420"/>
                            <mxPoint x="1383" y="-400"/>
                            <mxPoint x="1390" y="-320"/>
                            <mxPoint x="1400" y="-200"/>
                        </Array>
                    </mxGeometry>
                </mxCell>
                <mxCell id="148" style="edgeStyle=none;html=1;exitX=0.25;exitY=1;exitDx=0;exitDy=0;entryX=0.5;entryY=0;entryDx=0;entryDy=0;strokeColor=#b85450;strokeWidth=3;fontColor=#3333FF;startArrow=ERmandOne;startFill=0;endArrow=ERoneToMany;endFill=0;fillColor=#f8cecc;" edge="1" parent="1" source="19" target="40">
                    <mxGeometry relative="1" as="geometry">
                        <Array as="points">
                            <mxPoint x="470" y="-180"/>
                        </Array>
                    </mxGeometry>
                </mxCell>
                <UserObject label="personal" lucidchartObjectId="a6AfSKtTRCPW" id="19">
                    <mxCell style="html=1;overflow=block;blockSpacing=1;whiteSpace=wrap;fontSize=16.7;align=center;spacing=3.8;strokeOpacity=100;rounded=1;absoluteArcSize=1;arcSize=9;strokeWidth=2.3;strokeColor=#FFF194;" vertex="1" parent="1">
                        <mxGeometry x="525" y="-280" width="170" height="55" as="geometry"/>
                    </mxCell>
                </UserObject>
                <mxCell id="83" style="edgeStyle=none;html=1;exitX=0.5;exitY=1;exitDx=0;exitDy=0;entryX=0.5;entryY=0;entryDx=0;entryDy=0;strokeColor=#FFF194;fontSize=12;fontColor=#FFFFFF;endArrow=ERmany;endFill=0;" edge="1" parent="1" source="20" target="22">
                    <mxGeometry relative="1" as="geometry"/>
                </mxCell>
                <mxCell id="85" style="edgeStyle=none;html=1;exitX=0.5;exitY=0;exitDx=0;exitDy=0;entryX=0.5;entryY=1;entryDx=0;entryDy=0;strokeColor=#FFFFCC;fontColor=#FFFFFF;startArrow=ERmandOne;startFill=0;endArrow=ERoneToMany;endFill=0;" edge="1" parent="1" source="20" target="19">
                    <mxGeometry relative="1" as="geometry"/>
                </mxCell>
                <mxCell id="104" style="edgeStyle=none;html=1;exitX=1;exitY=0.5;exitDx=0;exitDy=0;entryX=0;entryY=0.75;entryDx=0;entryDy=0;strokeColor=#FFFFCC;fontColor=#FFFFFF;startArrow=ERmandOne;startFill=0;endArrow=ERoneToMany;endFill=0;" edge="1" parent="1" source="20" target="101">
                    <mxGeometry relative="1" as="geometry"/>
                </mxCell>
                <UserObject label="Usuario" lucidchartObjectId="c6Af_CVJARY~" id="20">
                    <mxCell style="html=1;overflow=block;blockSpacing=1;whiteSpace=wrap;fontSize=16.7;align=center;spacing=3.8;strokeOpacity=100;rounded=1;absoluteArcSize=1;arcSize=9;strokeWidth=2.3;strokeColor=#FFF194;" vertex="1" parent="1">
                        <mxGeometry x="540" y="-130" width="150" height="60" as="geometry"/>
                    </mxCell>
                </UserObject>
                <mxCell id="89" style="edgeStyle=none;html=1;strokeColor=#FFFFCC;fontColor=#FFFFFF;startArrow=ERmandOne;startFill=0;endArrow=ERoneToMany;endFill=0;entryX=1;entryY=0.5;entryDx=0;entryDy=0;" edge="1" parent="1" target="87">
                    <mxGeometry relative="1" as="geometry">
                        <mxPoint x="550" y="50" as="sourcePoint"/>
                        <Array as="points">
                            <mxPoint x="500" y="50"/>
                            <mxPoint x="500"/>
                            <mxPoint x="500" y="-50"/>
                            <mxPoint x="500" y="-110"/>
                        </Array>
                    </mxGeometry>
                </mxCell>
                <mxCell id="125" style="edgeStyle=none;html=1;exitX=1;exitY=0.5;exitDx=0;exitDy=0;strokeColor=#FFFFCC;strokeWidth=1;fontColor=#FFFFFF;startArrow=ERmandOne;startFill=0;endArrow=ERoneToMany;endFill=0;" edge="1" parent="1" source="22" target="43">
                    <mxGeometry relative="1" as="geometry"/>
                </mxCell>
                <UserObject label="clientes" lucidchartObjectId="v6AfUFeCAH0l" id="22">
                    <mxCell style="html=1;overflow=block;blockSpacing=1;whiteSpace=wrap;fontSize=16.7;align=center;spacing=3.8;strokeOpacity=100;rounded=1;absoluteArcSize=1;arcSize=9;strokeWidth=2.3;strokeColor=#FFF194;" vertex="1" parent="1">
                        <mxGeometry x="555" y="30" width="120" height="45" as="geometry"/>
                    </mxCell>
                </UserObject>
                <mxCell id="147" style="edgeStyle=none;html=1;exitX=0.25;exitY=1;exitDx=0;exitDy=0;entryX=1;entryY=0.25;entryDx=0;entryDy=0;strokeColor=#FFFFCC;strokeWidth=1;fontColor=#FFFFFF;startArrow=ERmandOne;startFill=0;endArrow=ERoneToMany;endFill=0;" edge="1" parent="1" source="27" target="40">
                    <mxGeometry relative="1" as="geometry">
                        <Array as="points">
                            <mxPoint x="840" y="380"/>
                            <mxPoint x="690" y="390"/>
                        </Array>
                    </mxGeometry>
                </mxCell>
                <UserObject label="Registro" lucidchartObjectId="A8AfqtrKCbO3" id="27">
                    <mxCell style="html=1;overflow=block;blockSpacing=1;whiteSpace=wrap;fontSize=16.7;align=center;spacing=3.8;strokeOpacity=100;rounded=1;absoluteArcSize=1;arcSize=9;strokeWidth=2.3;strokeColor=#FFF194;" vertex="1" parent="1">
                        <mxGeometry x="787.5" y="305" width="225" height="45" as="geometry"/>
                    </mxCell>
                </UserObject>
                <mxCell id="81" style="edgeStyle=none;html=1;exitX=0.5;exitY=1;exitDx=0;exitDy=0;strokeColor=#FFFFCC;fontColor=#FFFFFF;startArrow=ERmandOne;startFill=0;endArrow=ERoneToMany;endFill=0;" edge="1" parent="1" source="28" target="19">
                    <mxGeometry relative="1" as="geometry">
                        <Array as="points">
                            <mxPoint x="610" y="-350"/>
                        </Array>
                    </mxGeometry>
                </mxCell>
                <UserObject label="tipoPersonal" lucidchartObjectId="e-AfCWHZY7fs" id="28">
                    <mxCell style="html=1;overflow=block;blockSpacing=1;whiteSpace=wrap;fontSize=16.7;align=center;spacing=3.8;strokeOpacity=100;rounded=1;absoluteArcSize=1;arcSize=9;strokeWidth=2.3;strokeColor=#FFF194;" vertex="1" parent="1">
                        <mxGeometry x="550" y="-410" width="120" height="45" as="geometry"/>
                    </mxCell>
                </UserObject>
                <mxCell id="128" style="edgeStyle=none;html=1;exitX=0;exitY=0.5;exitDx=0;exitDy=0;strokeColor=#FFFFCC;strokeWidth=1;fontColor=#FFFFFF;startArrow=ERmandOne;startFill=0;endArrow=ERoneToMany;endFill=0;entryX=0.798;entryY=0.009;entryDx=0;entryDy=0;entryPerimeter=0;" edge="1" parent="1" source="30" target="27">
                    <mxGeometry relative="1" as="geometry">
                        <Array as="points">
                            <mxPoint x="970" y="260"/>
                        </Array>
                    </mxGeometry>
                </mxCell>
                <mxCell id="129" style="edgeStyle=none;html=1;exitX=1;exitY=0.5;exitDx=0;exitDy=0;entryX=0;entryY=0.5;entryDx=0;entryDy=0;strokeColor=#FFFFCC;strokeWidth=1;fontColor=#FFFFFF;startArrow=ERmandOne;startFill=0;endArrow=ERoneToMany;endFill=0;" edge="1" parent="1" source="30" target="32">
                    <mxGeometry relative="1" as="geometry"/>
                </mxCell>
                <UserObject label="estado" lucidchartObjectId="2-Af-ItA0Clx" id="30">
                    <mxCell style="html=1;overflow=block;blockSpacing=1;whiteSpace=wrap;fontSize=16.7;align=center;spacing=3.8;strokeOpacity=100;rounded=1;absoluteArcSize=1;arcSize=9;strokeWidth=2.3;strokeColor=#FFF194;" vertex="1" parent="1">
                        <mxGeometry x="1080" y="260" width="120" height="45" as="geometry"/>
                    </mxCell>
                </UserObject>
                <mxCell id="130" style="edgeStyle=none;html=1;exitX=1;exitY=0.5;exitDx=0;exitDy=0;entryX=0;entryY=0.75;entryDx=0;entryDy=0;strokeColor=#FFFFCC;strokeWidth=1;fontColor=#FFFFFF;startArrow=ERmandOne;startFill=0;endArrow=ERoneToMany;endFill=0;" edge="1" parent="1" source="31" target="32">
                    <mxGeometry relative="1" as="geometry"/>
                </mxCell>
                <UserObject label="gravedad" lucidchartObjectId="9-AfzuplBCKs" id="31">
                    <mxCell style="html=1;overflow=block;blockSpacing=1;whiteSpace=wrap;fontSize=16.7;align=center;spacing=3.8;strokeOpacity=100;rounded=1;absoluteArcSize=1;arcSize=9;strokeWidth=2.3;strokeColor=#FFF194;" vertex="1" parent="1">
                        <mxGeometry x="1080" y="340" width="120" height="48" as="geometry"/>
                    </mxCell>
                </UserObject>
                <UserObject label="DetalleRegistro" lucidchartObjectId="RbBft1wn2WcB" id="32">
                    <mxCell style="html=1;overflow=block;blockSpacing=1;whiteSpace=wrap;fontSize=16.7;align=center;spacing=3.8;strokeOpacity=100;rounded=1;absoluteArcSize=1;arcSize=9;strokeWidth=2.3;strokeColor=#FFF194;" vertex="1" parent="1">
                        <mxGeometry x="1275" y="270" width="120" height="45" as="geometry"/>
                    </mxCell>
                </UserObject>
                <mxCell id="145" style="edgeStyle=none;html=1;exitX=0;exitY=0.5;exitDx=0;exitDy=0;strokeColor=#FFFFCC;strokeWidth=1;fontColor=#FFFFFF;startArrow=ERmandOne;startFill=0;endArrow=ERoneToMany;endFill=0;entryX=0.5;entryY=0;entryDx=0;entryDy=0;" edge="1" parent="1" source="35" target="143">
                    <mxGeometry relative="1" as="geometry">
                        <Array as="points">
                            <mxPoint x="-210" y="-417"/>
                        </Array>
                        <mxPoint x="-210" y="-70" as="targetPoint"/>
                    </mxGeometry>
                </mxCell>
                <mxCell id="149" style="edgeStyle=none;html=1;exitX=1;exitY=0.25;exitDx=0;exitDy=0;strokeColor=#b85450;strokeWidth=3;fontColor=#FFFFFF;startArrow=ERmandOne;startFill=0;endArrow=ERoneToMany;endFill=0;fillColor=#f8cecc;" edge="1" parent="1" source="35" target="40">
                    <mxGeometry relative="1" as="geometry">
                        <Array as="points">
                            <mxPoint x="160" y="-400"/>
                            <mxPoint x="170" y="373"/>
                        </Array>
                    </mxGeometry>
                </mxCell>
                <UserObject label="Inventario" lucidchartObjectId="UcBfvdfG~xuZ" id="35">
                    <mxCell style="html=1;overflow=block;blockSpacing=1;whiteSpace=wrap;fontSize=16.7;align=center;spacing=3.8;strokeOpacity=100;rounded=1;absoluteArcSize=1;arcSize=9;strokeWidth=2.3;strokeColor=#FFF194;" vertex="1" parent="1">
                        <mxGeometry x="37.5" y="-440" width="105" height="45" as="geometry"/>
                    </mxCell>
                </UserObject>
                <UserObject label="MovimientoInventario" lucidchartObjectId="GnBfpLfu1Ddu" id="40">
                    <mxCell style="html=1;overflow=block;blockSpacing=1;whiteSpace=wrap;fontSize=16.7;fontColor=#FFFFFF;align=center;spacing=3.8;strokeColor=#000000;strokeOpacity=100;rounded=1;absoluteArcSize=1;arcSize=9;strokeWidth=2.3;" vertex="1" parent="1">
                        <mxGeometry x="390" y="350" width="180" height="45" as="geometry"/>
                    </mxCell>
                </UserObject>
                <mxCell id="126" style="edgeStyle=none;html=1;exitX=0.5;exitY=1;exitDx=0;exitDy=0;strokeColor=#FFFFCC;strokeWidth=1;fontColor=#FFFFFF;startArrow=ERmandOne;startFill=0;endArrow=ERoneToMany;endFill=0;" edge="1" parent="1" source="43" target="27">
                    <mxGeometry relative="1" as="geometry"/>
                </mxCell>
                <UserObject label="Vehiculos" lucidchartObjectId="BvBf1V1v6eV7" id="43">
                    <mxCell style="html=1;overflow=block;blockSpacing=1;whiteSpace=wrap;fontSize=16.7;align=center;spacing=3.8;strokeOpacity=100;rounded=1;absoluteArcSize=1;arcSize=9;strokeWidth=2.3;strokeColor=#FFF194;" vertex="1" parent="1">
                        <mxGeometry x="810" y="160" width="180" height="45" as="geometry"/>
                    </mxCell>
                </UserObject>
                <mxCell id="112" style="edgeStyle=none;html=1;exitX=1;exitY=0.5;exitDx=0;exitDy=0;strokeColor=#37D606;strokeWidth=2;fontColor=#FFFFFF;startArrow=ERmandOne;startFill=0;endArrow=ERoneToMany;endFill=0;" edge="1" parent="1" source="45">
                    <mxGeometry relative="1" as="geometry">
                        <mxPoint x="1090" y="-120" as="targetPoint"/>
                        <Array as="points">
                            <mxPoint x="740" y="260"/>
                            <mxPoint x="740" y="200"/>
                            <mxPoint x="740" y="120"/>
                            <mxPoint x="900" y="110"/>
                            <mxPoint x="1090" y="100"/>
                        </Array>
                    </mxGeometry>
                </mxCell>
                <mxCell id="114" style="edgeStyle=none;html=1;exitX=0.5;exitY=0;exitDx=0;exitDy=0;entryX=0.592;entryY=1;entryDx=0;entryDy=0;entryPerimeter=0;strokeColor=#FFFFCC;strokeWidth=1;fontColor=#FFFFFF;startArrow=ERmandOne;startFill=0;endArrow=ERoneToMany;endFill=0;" edge="1" parent="1" source="45" target="8">
                    <mxGeometry relative="1" as="geometry"/>
                </mxCell>
                <UserObject label="Servicio" lucidchartObjectId="0zBfUcZKE6SZ" id="45">
                    <mxCell style="html=1;overflow=block;blockSpacing=1;whiteSpace=wrap;fontSize=16.7;align=center;spacing=3.8;strokeOpacity=100;rounded=1;absoluteArcSize=1;arcSize=9;strokeWidth=2.3;strokeColor=#FFF194;" vertex="1" parent="1">
                        <mxGeometry x="570" y="255" width="120" height="50" as="geometry"/>
                    </mxCell>
                </UserObject>
                <UserObject label="personalServicio" lucidchartObjectId="0HBftK.mLJg1" id="50">
                    <mxCell style="html=1;overflow=block;blockSpacing=1;whiteSpace=wrap;fontSize=16.7;align=center;spacing=3.8;strokeOpacity=100;rounded=1;absoluteArcSize=1;arcSize=9;strokeWidth=2.3;strokeColor=#FFF194;" vertex="1" parent="1">
                        <mxGeometry x="980" y="-170" width="151" height="45" as="geometry"/>
                    </mxCell>
                </UserObject>
                <mxCell id="119" style="edgeStyle=none;html=1;exitX=0;exitY=0.25;exitDx=0;exitDy=0;entryX=1;entryY=0.25;entryDx=0;entryDy=0;strokeColor=#FFFFCC;strokeWidth=1;fontColor=#FFFFFF;startArrow=ERmandOne;startFill=0;endArrow=ERoneToMany;endFill=0;" edge="1" parent="1" source="52" target="43">
                    <mxGeometry relative="1" as="geometry"/>
                </mxCell>
                <UserObject label="Tipo Vehiculo" lucidchartObjectId="1JBfOHJQBgz_" id="52">
                    <mxCell style="html=1;overflow=block;blockSpacing=1;whiteSpace=wrap;fontSize=16.7;align=center;spacing=3.8;strokeOpacity=100;rounded=1;absoluteArcSize=1;arcSize=9;strokeWidth=2.3;strokeColor=#FFF194;" vertex="1" parent="1">
                        <mxGeometry x="1040" y="120" width="180" height="45" as="geometry"/>
                    </mxCell>
                </UserObject>
                <mxCell id="115" style="edgeStyle=none;html=1;exitX=1;exitY=0.5;exitDx=0;exitDy=0;entryX=0.5;entryY=1;entryDx=0;entryDy=0;strokeColor=#FFF194;fontSize=12;fontColor=#FFFFFF;endArrow=ERmany;endFill=0;" edge="1" parent="1" source="55" target="57">
                    <mxGeometry relative="1" as="geometry">
                        <Array as="points">
                            <mxPoint x="430" y="-410"/>
                        </Array>
                    </mxGeometry>
                </mxCell>
                <UserObject label="Area " lucidchartObjectId="PLBfMSUYFcBS" id="55">
                    <mxCell style="html=1;overflow=block;blockSpacing=1;whiteSpace=wrap;fontSize=16.7;align=center;spacing=3.8;strokeOpacity=100;rounded=1;absoluteArcSize=1;arcSize=9;strokeWidth=2.3;strokeColor=#FFF194;" vertex="1" parent="1">
                        <mxGeometry x="250" y="-410" width="120" height="75" as="geometry"/>
                    </mxCell>
                </UserObject>
                <mxCell id="141" style="edgeStyle=none;html=1;exitX=0.5;exitY=1;exitDx=0;exitDy=0;entryX=0.679;entryY=-0.013;entryDx=0;entryDy=0;entryPerimeter=0;strokeColor=#37D606;strokeWidth=2;fontColor=#FFFFFF;startArrow=ERmandOne;startFill=0;endArrow=ERoneToMany;endFill=0;" edge="1" parent="1" source="56" target="57">
                    <mxGeometry relative="1" as="geometry"/>
                </mxCell>
                <UserObject label="Estado Maquinaria" lucidchartObjectId="YLBfhcX8xoHO" id="56">
                    <mxCell style="html=1;overflow=block;blockSpacing=1;whiteSpace=wrap;fontSize=16.7;align=center;spacing=3.8;strokeOpacity=100;rounded=1;absoluteArcSize=1;arcSize=0;strokeWidth=2.3;strokeColor=#FFF194;" vertex="1" parent="1">
                        <mxGeometry x="420" y="-740" width="120" height="75" as="geometry"/>
                    </mxCell>
                </UserObject>
                <UserObject label="Maquinaria taller" lucidchartObjectId="XMBfvJgync_l" id="57">
                    <mxCell style="html=1;overflow=block;blockSpacing=1;whiteSpace=wrap;fontSize=16.7;align=center;spacing=3.8;strokeOpacity=100;rounded=1;absoluteArcSize=1;arcSize=9;strokeWidth=2.3;strokeColor=#FFF194;" vertex="1" parent="1">
                        <mxGeometry x="390" y="-580" width="120" height="75" as="geometry"/>
                    </mxCell>
                </UserObject>
                <UserObject label="clientesTaller" lucidchartObjectId="v6AfUFeCAH0l" id="87">
                    <mxCell style="html=1;overflow=block;blockSpacing=1;whiteSpace=wrap;fontSize=16.7;align=center;spacing=3.8;strokeOpacity=100;rounded=1;absoluteArcSize=1;arcSize=9;strokeWidth=2.3;strokeColor=#FFF194;" vertex="1" parent="1">
                        <mxGeometry x="305" y="-140" width="120" height="45" as="geometry"/>
                    </mxCell>
                </UserObject>
                <mxCell id="105" style="edgeStyle=none;html=1;exitX=0;exitY=0.5;exitDx=0;exitDy=0;entryX=1;entryY=0;entryDx=0;entryDy=0;strokeColor=#FFFFCC;fontColor=#FFFFFF;startArrow=ERmandOne;startFill=0;endArrow=ERoneToMany;endFill=0;" edge="1" parent="1" source="97" target="20">
                    <mxGeometry relative="1" as="geometry"/>
                </mxCell>
                <UserObject label="Arl" lucidchartObjectId="a6AfSKtTRCPW" id="97">
                    <mxCell style="html=1;overflow=block;blockSpacing=1;whiteSpace=wrap;fontSize=16.7;align=center;spacing=3.8;strokeOpacity=100;rounded=1;absoluteArcSize=1;arcSize=9;strokeWidth=2.3;strokeColor=#FFF194;" vertex="1" parent="1">
                        <mxGeometry x="800" y="-252.5" width="110" height="55" as="geometry"/>
                    </mxCell>
                </UserObject>
                <mxCell id="106" style="edgeStyle=none;html=1;exitX=0;exitY=0.5;exitDx=0;exitDy=0;entryX=1;entryY=0.25;entryDx=0;entryDy=0;strokeColor=#FFFFCC;fontColor=#FFFFFF;startArrow=ERmandOne;startFill=0;endArrow=ERoneToMany;endFill=0;" edge="1" parent="1" source="98" target="20">
                    <mxGeometry relative="1" as="geometry"/>
                </mxCell>
                <UserObject label="Eps" lucidchartObjectId="a6AfSKtTRCPW" id="98">
                    <mxCell style="html=1;overflow=block;blockSpacing=1;whiteSpace=wrap;fontSize=16.7;align=center;spacing=3.8;strokeOpacity=100;rounded=1;absoluteArcSize=1;arcSize=9;strokeWidth=2.3;strokeColor=#FFF194;" vertex="1" parent="1">
                        <mxGeometry x="840.5" y="-150" width="99.5" height="55" as="geometry"/>
                    </mxCell>
                </UserObject>
                <mxCell id="103" style="edgeStyle=none;html=1;exitX=0;exitY=0.5;exitDx=0;exitDy=0;strokeColor=#FFFFCC;fontColor=#FFFFFF;startArrow=ERmandOne;startFill=0;endArrow=ERoneToMany;endFill=0;" edge="1" parent="1" source="99" target="101">
                    <mxGeometry relative="1" as="geometry"/>
                </mxCell>
                <UserObject label="TipoContacto" lucidchartObjectId="a6AfSKtTRCPW" id="99">
                    <mxCell style="html=1;overflow=block;blockSpacing=1;whiteSpace=wrap;fontSize=16.7;align=center;spacing=3.8;strokeOpacity=100;rounded=1;absoluteArcSize=1;arcSize=9;strokeWidth=2.3;strokeColor=#FFF194;" vertex="1" parent="1">
                        <mxGeometry x="1140" width="150" height="55" as="geometry"/>
                    </mxCell>
                </UserObject>
                <mxCell id="102" style="edgeStyle=none;html=1;exitX=0;exitY=0.5;exitDx=0;exitDy=0;entryX=1;entryY=0.25;entryDx=0;entryDy=0;strokeColor=#FFFFCC;fontColor=#FFFFFF;startArrow=ERmandOne;startFill=0;endArrow=ERoneToMany;endFill=0;" edge="1" parent="1" source="100" target="101">
                    <mxGeometry relative="1" as="geometry"/>
                </mxCell>
                <UserObject label="CategoriaContactos" lucidchartObjectId="a6AfSKtTRCPW" id="100">
                    <mxCell style="html=1;overflow=block;blockSpacing=1;whiteSpace=wrap;fontSize=16.7;align=center;spacing=3.8;strokeOpacity=100;rounded=1;absoluteArcSize=1;arcSize=9;strokeWidth=2.3;strokeColor=#FFF194;" vertex="1" parent="1">
                        <mxGeometry x="1130" y="-77.5" width="170" height="55" as="geometry"/>
                    </mxCell>
                </UserObject>
                <UserObject label="Contacto" lucidchartObjectId="a6AfSKtTRCPW" id="101">
                    <mxCell style="html=1;overflow=block;blockSpacing=1;whiteSpace=wrap;fontSize=16.7;align=center;spacing=3.8;strokeOpacity=100;rounded=1;absoluteArcSize=1;arcSize=9;strokeWidth=2.3;strokeColor=#FFF194;" vertex="1" parent="1">
                        <mxGeometry x="900" y="-40" width="150" height="55" as="geometry"/>
                    </mxCell>
                </UserObject>
                <mxCell id="108" style="edgeStyle=none;html=1;exitX=0;exitY=0;exitDx=0;exitDy=0;entryX=0.853;entryY=1.067;entryDx=0;entryDy=0;entryPerimeter=0;strokeColor=#FFFFCC;fontColor=#FFFFFF;startArrow=ERmandOne;startFill=0;endArrow=ERoneToMany;endFill=0;" edge="1" parent="1" source="107" target="20">
                    <mxGeometry relative="1" as="geometry"/>
                </mxCell>
                <UserObject label="Rol" lucidchartObjectId="a6AfSKtTRCPW" id="107">
                    <mxCell style="html=1;overflow=block;blockSpacing=1;whiteSpace=wrap;fontSize=16.7;align=center;spacing=3.8;strokeOpacity=100;rounded=1;absoluteArcSize=1;arcSize=9;strokeWidth=2.3;strokeColor=#FFF194;" vertex="1" parent="1">
                        <mxGeometry x="740" y="-10" width="110" height="55" as="geometry"/>
                    </mxCell>
                </UserObject>
                <mxCell id="110" style="edgeStyle=none;html=1;exitX=0.25;exitY=1;exitDx=0;exitDy=0;entryX=0.887;entryY=0;entryDx=0;entryDy=0;entryPerimeter=0;strokeColor=#FFFFCC;fontColor=#FFFFFF;startArrow=ERmandOne;startFill=0;endArrow=ERoneToMany;endFill=0;" edge="1" parent="1" source="109" target="20">
                    <mxGeometry relative="1" as="geometry"/>
                </mxCell>
                <UserObject label="TipoDocumento" lucidchartObjectId="a6AfSKtTRCPW" id="109">
                    <mxCell style="html=1;overflow=block;blockSpacing=1;whiteSpace=wrap;fontSize=16.7;align=center;spacing=3.8;strokeOpacity=100;rounded=1;absoluteArcSize=1;arcSize=9;strokeWidth=2.3;strokeColor=#FFF194;" vertex="1" parent="1">
                        <mxGeometry x="730.5" y="-400" width="170" height="55" as="geometry"/>
                    </mxCell>
                </UserObject>
                <mxCell id="122" style="edgeStyle=none;html=1;exitX=0;exitY=0.5;exitDx=0;exitDy=0;entryX=1;entryY=0.75;entryDx=0;entryDy=0;strokeColor=#FFFFCC;strokeWidth=1;fontColor=#FFFFFF;startArrow=ERmandOne;startFill=0;endArrow=ERoneToMany;endFill=0;" edge="1" parent="1" source="121" target="43">
                    <mxGeometry relative="1" as="geometry"/>
                </mxCell>
                <UserObject label="Seguro" lucidchartObjectId="1JBfOHJQBgz_" id="121">
                    <mxCell style="html=1;overflow=block;blockSpacing=1;whiteSpace=wrap;fontSize=16.7;align=center;spacing=3.8;strokeOpacity=100;rounded=1;absoluteArcSize=1;arcSize=9;strokeWidth=2.3;strokeColor=#FFF194;" vertex="1" parent="1">
                        <mxGeometry x="1040" y="185" width="180" height="45" as="geometry"/>
                    </mxCell>
                </UserObject>
                <UserObject label="ProveedorInventario" lucidchartObjectId="UcBfvdfG~xuZ" id="143">
                    <mxCell style="html=1;overflow=block;blockSpacing=1;whiteSpace=wrap;fontSize=16.7;align=center;spacing=3.8;strokeOpacity=100;rounded=1;absoluteArcSize=1;arcSize=9;strokeWidth=2.3;strokeColor=#FFF194;" vertex="1" parent="1">
                        <mxGeometry x="-300" y="-55" width="190" height="45" as="geometry"/>
                    </mxCell>
                </UserObject>
            </root>
        </mxGraphModel>
    </diagram>
    <diagram id="J3bnnXmFRBNfpDlhpJKj" name="Page-1">
        <mxGraphModel grid="1" page="1" gridSize="10" guides="1" tooltips="1" connect="1" arrows="1" fold="1" pageScale="1" pageWidth="850" pageHeight="1100" math="0" shadow="0">
            <root>
                <mxCell id="0"/>
                <mxCell id="1" parent="0"/>
                <UserObject label="Departamento" lucidchartObjectId="y1Af4tkN~yDY" id="62">
                    <mxCell style="html=1;overflow=block;blockSpacing=1;whiteSpace=wrap;fontSize=16.7;fontColor=#FFFFFF;align=center;spacing=3.8;strokeColor=#FFFFFF;strokeOpacity=100;rounded=1;absoluteArcSize=1;arcSize=9;strokeWidth=2.3;" vertex="1" parent="1">
                        <mxGeometry x="330" y="390" width="120" height="60" as="geometry"/>
                    </mxCell>
                </UserObject>
                <UserObject label="ciudad" lucidchartObjectId="E1Afta9H0lmT" id="63">
                    <mxCell style="html=1;overflow=block;blockSpacing=1;whiteSpace=wrap;fontSize=16.7;fontColor=#FFFFFF;align=center;spacing=3.8;strokeColor=#FFFFFF;strokeOpacity=100;rounded=1;absoluteArcSize=1;arcSize=9;strokeWidth=2.3;" vertex="1" parent="1">
                        <mxGeometry x="315" y="525" width="120" height="60" as="geometry"/>
                    </mxCell>
                </UserObject>
                <UserObject label="Pais" lucidchartObjectId="H1AfQk4N_Saf" id="64">
                    <mxCell style="html=1;overflow=block;blockSpacing=1;whiteSpace=wrap;fontSize=16.7;fontColor=#FFFFFF;align=center;spacing=3.8;strokeColor=#FFFFFF;strokeOpacity=100;rounded=1;absoluteArcSize=1;arcSize=9;strokeWidth=2.3;" vertex="1" parent="1">
                        <mxGeometry x="285" y="300" width="120" height="45" as="geometry"/>
                    </mxCell>
                </UserObject>
                <UserObject label="" lucidchartObjectId="Z1AfeNxkmqLe" id="65">
                    <mxCell style="html=1;jettySize=18;whiteSpace=wrap;fontSize=13;strokeColor=#FFFFFF;strokeWidth=1.5;rounded=1;arcSize=12;edgeStyle=orthogonalEdgeStyle;startArrow=ERmandOne;startSize=10;endArrow=ERmany;endSize=10;exitX=1.009;exitY=0.5;exitPerimeter=0;entryX=0.358;entryY=-0.019;entryPerimeter=0;fontColor=#FFFFFF;" edge="1" parent="1" source="64" target="62">
                        <mxGeometry width="100" height="100" relative="1" as="geometry">
                            <Array as="points"/>
                        </mxGeometry>
                    </mxCell>
                </UserObject>
                <UserObject label="" lucidchartObjectId="11AftxTirDNY" id="66">
                    <mxCell style="html=1;jettySize=18;whiteSpace=wrap;fontSize=13;strokeColor=#FFFFFF;strokeWidth=1.5;rounded=1;arcSize=12;edgeStyle=orthogonalEdgeStyle;startArrow=ERmandOne;startSize=10;endArrow=ERmany;endSize=10;exitX=0.5;exitY=1.019;exitPerimeter=0;entryX=0.5;entryY=-0.019;entryPerimeter=0;fontColor=#FFFFFF;" edge="1" parent="1" source="62" target="63">
                        <mxGeometry width="100" height="100" relative="1" as="geometry">
                            <Array as="points"/>
                        </mxGeometry>
                    </mxCell>
                </UserObject>
                <UserObject label="taller" lucidchartObjectId="81AfojI8KQGz" id="67">
                    <mxCell style="html=1;overflow=block;blockSpacing=1;whiteSpace=wrap;fontSize=16.7;fontColor=#FFFFFF;align=center;spacing=3.8;strokeColor=#FFFFFF;strokeOpacity=100;rounded=1;absoluteArcSize=1;arcSize=9;strokeWidth=2.3;" vertex="1" parent="1">
                        <mxGeometry x="675" y="615" width="120" height="75" as="geometry"/>
                    </mxCell>
                </UserObject>
                <UserObject label="servicios" lucidchartObjectId="b3AfDdAyTASc" id="68">
                    <mxCell style="html=1;overflow=block;blockSpacing=1;whiteSpace=wrap;fontSize=16.7;fontColor=#FFFFFF;align=center;spacing=3.8;strokeColor=#FFFFFF;strokeOpacity=100;rounded=1;absoluteArcSize=1;arcSize=9;strokeWidth=2.3;" vertex="1" parent="1">
                        <mxGeometry x="855" y="683" width="120" height="45" as="geometry"/>
                    </mxCell>
                </UserObject>
                <UserObject label="Proveedor" lucidchartObjectId="m3AfNLiYfdGC" id="69">
                    <mxCell style="html=1;overflow=block;blockSpacing=1;whiteSpace=wrap;fontSize=16.7;fontColor=#FFFFFF;align=center;spacing=3.8;strokeColor=#FFFFFF;strokeOpacity=100;rounded=1;absoluteArcSize=1;arcSize=9;strokeWidth=2.3;" vertex="1" parent="1">
                        <mxGeometry x="195" y="615" width="120" height="45" as="geometry"/>
                    </mxCell>
                </UserObject>
                <UserObject label="serviciosTaller" lucidchartObjectId="o3AfUsYn.w-y" id="70">
                    <mxCell style="html=1;overflow=block;blockSpacing=1;whiteSpace=wrap;fontSize=16.7;fontColor=#FFFFFF;align=center;spacing=3.8;strokeColor=#FFFFFF;strokeOpacity=100;rounded=1;absoluteArcSize=1;arcSize=9;strokeWidth=2.3;" vertex="1" parent="1">
                        <mxGeometry x="660" y="758" width="120" height="45" as="geometry"/>
                    </mxCell>
                </UserObject>
                <UserObject label="" lucidchartObjectId="u3AfNNVl4uR8" id="71">
                    <mxCell style="html=1;jettySize=18;whiteSpace=wrap;fontSize=13;strokeColor=#FFFFFF;strokeWidth=1.5;rounded=1;arcSize=12;edgeStyle=orthogonalEdgeStyle;startArrow=ERmandOne;startSize=10;endArrow=ERmany;endSize=10;exitX=0.5;exitY=1.015;exitPerimeter=0;entryX=0.5;entryY=-0.025;entryPerimeter=0;fontColor=#FFFFFF;" edge="1" parent="1" source="67" target="70">
                        <mxGeometry width="100" height="100" relative="1" as="geometry">
                            <Array as="points">
                                <mxPoint x="735" y="705"/>
                            </Array>
                        </mxGeometry>
                    </mxCell>
                </UserObject>
                <UserObject label="" lucidchartObjectId="x3AfQxBpNhAu" id="72">
                    <mxCell style="html=1;jettySize=18;whiteSpace=wrap;fontSize=13;strokeColor=#FFFFFF;strokeWidth=1.5;rounded=1;arcSize=12;edgeStyle=orthogonalEdgeStyle;startArrow=ERmandOne;startSize=10;endArrow=ERmany;endSize=10;exitX=-0.009;exitY=0.5;exitPerimeter=0;entryX=1.009;entryY=0.5;entryPerimeter=0;fontColor=#FFFFFF;" edge="1" parent="1" source="68" target="70">
                        <mxGeometry width="100" height="100" relative="1" as="geometry">
                            <Array as="points"/>
                        </mxGeometry>
                    </mxCell>
                </UserObject>
                <UserObject label="ciudadProveedor" lucidchartObjectId="I4AfiSXeFsRm" id="73">
                    <mxCell style="html=1;overflow=block;blockSpacing=1;whiteSpace=wrap;fontSize=16.7;fontColor=#FFFFFF;align=center;spacing=3.8;strokeColor=#FFFFFF;strokeOpacity=100;rounded=1;absoluteArcSize=1;arcSize=9;strokeWidth=2.3;" vertex="1" parent="1">
                        <mxGeometry x="90" y="473" width="120" height="45" as="geometry"/>
                    </mxCell>
                </UserObject>
                <UserObject label="" lucidchartObjectId="S4AfQ30DubU9" id="74">
                    <mxCell style="html=1;jettySize=18;whiteSpace=wrap;fontSize=13;strokeColor=#FFFFFF;strokeWidth=1.5;rounded=1;arcSize=12;edgeStyle=orthogonalEdgeStyle;startArrow=ERmandOne;startSize=10;endArrow=ERmany;endSize=10;exitX=-0.009;exitY=0.5;exitPerimeter=0;entryX=1.009;entryY=0.333;entryPerimeter=0;fontColor=#FFFFFF;" edge="1" parent="1" source="63" target="73">
                        <mxGeometry width="100" height="100" relative="1" as="geometry">
                            <Array as="points"/>
                        </mxGeometry>
                    </mxCell>
                </UserObject>
                <UserObject label="" lucidchartObjectId="Z4AfEf.0uoIC" id="75">
                    <mxCell style="html=1;jettySize=18;whiteSpace=wrap;fontSize=13;strokeColor=#FFFFFF;strokeWidth=1.5;rounded=1;arcSize=12;edgeStyle=orthogonalEdgeStyle;startArrow=ERmandOne;startSize=10;endArrow=ERmany;endSize=10;exitX=-0.009;exitY=0.5;exitPerimeter=0;entryX=-0.009;entryY=0.756;entryPerimeter=0;fontColor=#FFFFFF;" edge="1" parent="1" source="69" target="73">
                        <mxGeometry width="100" height="100" relative="1" as="geometry">
                            <Array as="points"/>
                        </mxGeometry>
                    </mxCell>
                </UserObject>
                <UserObject label="ProveedorTaller" lucidchartObjectId="44AfrzosvBnp" id="76">
                    <mxCell style="html=1;overflow=block;blockSpacing=1;whiteSpace=wrap;fontSize=16.7;fontColor=#FFFFFF;align=center;spacing=3.8;strokeColor=#FFFFFF;strokeOpacity=100;rounded=1;absoluteArcSize=1;arcSize=9;strokeWidth=2.3;" vertex="1" parent="1">
                        <mxGeometry x="405" y="675" width="120" height="45" as="geometry"/>
                    </mxCell>
                </UserObject>
                <UserObject label="" lucidchartObjectId=".4AfvY89y0ud" id="77">
                    <mxCell style="html=1;jettySize=18;whiteSpace=wrap;fontSize=13;strokeColor=#FFFFFF;strokeWidth=1.5;rounded=1;arcSize=12;edgeStyle=orthogonalEdgeStyle;startArrow=ERmandOne;startSize=10;endArrow=ERmany;endSize=10;exitX=1.009;exitY=0.5;exitPerimeter=0;entryX=-0.009;entryY=0.5;entryPerimeter=0;fontColor=#FFFFFF;" edge="1" parent="1" source="69" target="76">
                        <mxGeometry width="100" height="100" relative="1" as="geometry">
                            <Array as="points"/>
                        </mxGeometry>
                    </mxCell>
                </UserObject>
                <UserObject label="" lucidchartObjectId="a5AfOI~pxqB2" id="78">
                    <mxCell style="html=1;jettySize=18;whiteSpace=wrap;fontSize=13;strokeColor=#FFFFFF;strokeWidth=1.5;rounded=1;arcSize=12;edgeStyle=orthogonalEdgeStyle;startArrow=ERmandOne;startSize=10;endArrow=ERmany;endSize=10;exitX=-0.009;exitY=0.5;exitPerimeter=0;entryX=1.009;entryY=0.5;entryPerimeter=0;fontColor=#FFFFFF;" edge="1" parent="1" source="67" target="76">
                        <mxGeometry width="100" height="100" relative="1" as="geometry">
                            <Array as="points"/>
                        </mxGeometry>
                    </mxCell>
                </UserObject>
                <UserObject label="personal" lucidchartObjectId="a6AfSKtTRCPW" id="79">
                    <mxCell style="html=1;overflow=block;blockSpacing=1;whiteSpace=wrap;fontSize=16.7;fontColor=#FFFFFF;align=center;spacing=3.8;strokeColor=#FFFFFF;strokeOpacity=100;rounded=1;absoluteArcSize=1;arcSize=9;strokeWidth=2.3;" vertex="1" parent="1">
                        <mxGeometry x="915" y="465" width="210" height="45" as="geometry"/>
                    </mxCell>
                </UserObject>
                <UserObject label="Usuario" lucidchartObjectId="c6Af_CVJARY~" id="80">
                    <mxCell style="html=1;overflow=block;blockSpacing=1;whiteSpace=wrap;fontSize=16.7;fontColor=#FFFFFF;align=center;spacing=3.8;strokeColor=#FFFFFF;strokeOpacity=100;rounded=1;absoluteArcSize=1;arcSize=9;strokeWidth=2.3;" vertex="1" parent="1">
                        <mxGeometry x="1095" y="630" width="180" height="45" as="geometry"/>
                    </mxCell>
                </UserObject>
                <UserObject label="" lucidchartObjectId="p6Afh2gnMapy" id="81">
                    <mxCell style="html=1;jettySize=18;whiteSpace=wrap;fontSize=13;strokeColor=#FFFFFF;strokeWidth=1.5;rounded=1;arcSize=12;edgeStyle=orthogonalEdgeStyle;startArrow=ERmandOne;startSize=10;endArrow=ERmany;endSize=10;exitX=0.5;exitY=-0.025;exitPerimeter=0;entryX=0.581;entryY=1.025;entryPerimeter=0;fontColor=#FFFFFF;" edge="1" parent="1" source="80" target="79">
                        <mxGeometry width="100" height="100" relative="1" as="geometry">
                            <Array as="points">
                                <mxPoint x="1185" y="570"/>
                                <mxPoint x="1125" y="570"/>
                                <mxPoint x="1125" y="528"/>
                                <mxPoint x="1037" y="528"/>
                            </Array>
                        </mxGeometry>
                    </mxCell>
                </UserObject>
                <UserObject label="clientes" lucidchartObjectId="v6AfUFeCAH0l" id="82">
                    <mxCell style="html=1;overflow=block;blockSpacing=1;whiteSpace=wrap;fontSize=16.7;fontColor=#FFFFFF;align=center;spacing=3.8;strokeColor=#FFFFFF;strokeOpacity=100;rounded=1;absoluteArcSize=1;arcSize=9;strokeWidth=2.3;" vertex="1" parent="1">
                        <mxGeometry x="1170" y="915" width="120" height="45" as="geometry"/>
                    </mxCell>
                </UserObject>
                <UserObject label="" lucidchartObjectId="D6Af2V8CuQUT" id="83">
                    <mxCell style="html=1;jettySize=18;whiteSpace=wrap;fontSize=13;strokeColor=#FFFFFF;strokeWidth=1.5;rounded=1;arcSize=12;edgeStyle=orthogonalEdgeStyle;startArrow=ERmandOne;startSize=10;endArrow=ERmany;endSize=10;exitX=0.5;exitY=1.025;exitPerimeter=0;entryX=0.5;entryY=-0.025;entryPerimeter=0;fontColor=#FFFFFF;" edge="1" parent="1" source="80" target="82">
                        <mxGeometry width="100" height="100" relative="1" as="geometry">
                            <Array as="points"/>
                        </mxGeometry>
                    </mxCell>
                </UserObject>
                <UserObject label="Roles" lucidchartObjectId="P6AfsW-Q.wto" id="84">
                    <mxCell style="html=1;overflow=block;blockSpacing=1;whiteSpace=wrap;fontSize=16.7;fontColor=#FFFFFF;align=center;spacing=3.8;strokeColor=#FFFFFF;strokeOpacity=100;rounded=1;absoluteArcSize=1;arcSize=9;strokeWidth=2.3;" vertex="1" parent="1">
                        <mxGeometry x="1140" y="375" width="120" height="45" as="geometry"/>
                    </mxCell>
                </UserObject>
                <UserObject label="" lucidchartObjectId="P7AfdHROJ3.E" id="85">
                    <mxCell style="html=1;jettySize=18;whiteSpace=wrap;fontSize=13;strokeColor=#FFFFFF;strokeWidth=1.5;rounded=1;arcSize=12;edgeStyle=orthogonalEdgeStyle;startArrow=ERmandOne;startSize=10;endArrow=ERmany;endSize=10;exitX=-0.009;exitY=0.5;exitPerimeter=0;entryX=0.5;entryY=-0.025;entryPerimeter=0;fontColor=#FFFFFF;" edge="1" parent="1" source="84" target="79">
                        <mxGeometry width="100" height="100" relative="1" as="geometry">
                            <Array as="points"/>
                        </mxGeometry>
                    </mxCell>
                </UserObject>
                <UserObject label="" lucidchartObjectId="27AfCC-AvpXF" id="86">
                    <mxCell style="html=1;jettySize=18;whiteSpace=wrap;fontSize=13;strokeColor=#FFFFFF;strokeWidth=1.5;rounded=1;arcSize=12;edgeStyle=orthogonalEdgeStyle;startArrow=ERmandOne;startSize=10;endArrow=ERmany;endSize=10;exitX=1.009;exitY=0.5;exitPerimeter=0;entryX=-0.006;entryY=0.5;entryPerimeter=0;fontColor=#FFFFFF;" edge="1" parent="1" source="67" target="80">
                        <mxGeometry width="100" height="100" relative="1" as="geometry">
                            <Array as="points"/>
                        </mxGeometry>
                    </mxCell>
                </UserObject>
                <UserObject label="Registro" lucidchartObjectId="A8AfqtrKCbO3" id="87">
                    <mxCell style="html=1;overflow=block;blockSpacing=1;whiteSpace=wrap;fontSize=16.7;fontColor=#FFFFFF;align=center;spacing=3.8;strokeColor=#FFFFFF;strokeOpacity=100;rounded=1;absoluteArcSize=1;arcSize=9;strokeWidth=2.3;" vertex="1" parent="1">
                        <mxGeometry x="585" y="1080" width="225" height="45" as="geometry"/>
                    </mxCell>
                </UserObject>
                <UserObject label="especialidad" lucidchartObjectId="e-AfCWHZY7fs" id="88">
                    <mxCell style="html=1;overflow=block;blockSpacing=1;whiteSpace=wrap;fontSize=16.7;fontColor=#FFFFFF;align=center;spacing=3.8;strokeColor=#FFFFFF;strokeOpacity=100;rounded=1;absoluteArcSize=1;arcSize=9;strokeWidth=2.3;" vertex="1" parent="1">
                        <mxGeometry x="1215" y="473" width="120" height="45" as="geometry"/>
                    </mxCell>
                </UserObject>
                <UserObject label="" lucidchartObjectId="p-Afyo2dcz1d" id="89">
                    <mxCell style="html=1;jettySize=18;whiteSpace=wrap;fontSize=13;strokeColor=#FFFFFF;strokeWidth=1.5;rounded=1;arcSize=12;edgeStyle=orthogonalEdgeStyle;startArrow=ERmandOne;startSize=10;endArrow=ERmany;endSize=10;exitX=-0.009;exitY=0.5;exitPerimeter=0;entryX=0.855;entryY=-0.025;entryPerimeter=0;fontColor=#FFFFFF;" edge="1" parent="1" source="88" target="79">
                        <mxGeometry width="100" height="100" relative="1" as="geometry">
                            <Array as="points"/>
                        </mxGeometry>
                    </mxCell>
                </UserObject>
                <UserObject label="estado" lucidchartObjectId="2-Af-ItA0Clx" id="90">
                    <mxCell style="html=1;overflow=block;blockSpacing=1;whiteSpace=wrap;fontSize=16.7;fontColor=#FFFFFF;align=center;spacing=3.8;strokeColor=#FFFFFF;strokeOpacity=100;rounded=1;absoluteArcSize=1;arcSize=9;strokeWidth=2.3;" vertex="1" parent="1">
                        <mxGeometry x="210" y="1005" width="120" height="45" as="geometry"/>
                    </mxCell>
                </UserObject>
                <UserObject label="gravedad" lucidchartObjectId="9-AfzuplBCKs" id="91">
                    <mxCell style="html=1;overflow=block;blockSpacing=1;whiteSpace=wrap;fontSize=16.7;fontColor=#FFFFFF;align=center;spacing=3.8;strokeColor=#FFFFFF;strokeOpacity=100;rounded=1;absoluteArcSize=1;arcSize=9;strokeWidth=2.3;" vertex="1" parent="1">
                        <mxGeometry x="165" y="1095" width="120" height="48" as="geometry"/>
                    </mxCell>
                </UserObject>
                <UserObject label="DetalleRegistro" lucidchartObjectId="RbBft1wn2WcB" id="92">
                    <mxCell style="html=1;overflow=block;blockSpacing=1;whiteSpace=wrap;fontSize=16.7;fontColor=#FFFFFF;align=center;spacing=3.8;strokeColor=#5e5e5e;strokeOpacity=100;rounded=1;absoluteArcSize=1;arcSize=9;strokeWidth=2.3;fillColor=#000000;" vertex="1" parent="1">
                        <mxGeometry x="585" y="1290" width="120" height="45" as="geometry"/>
                    </mxCell>
                </UserObject>
                <UserObject label="" lucidchartObjectId="lcBfFJeLX3pI" id="93">
                    <mxCell style="html=1;jettySize=18;whiteSpace=wrap;fontSize=13;strokeColor=#FFFFFF;strokeWidth=1.5;rounded=1;arcSize=12;edgeStyle=orthogonalEdgeStyle;startArrow=ERmandOne;startSize=10;endArrow=ERmany;endSize=10;exitX=0.5;exitY=-0.025;exitPerimeter=0;entryX=0.5;entryY=1.025;entryPerimeter=0;fontColor=#FFFFFF;" edge="1" parent="1" source="90" target="87">
                        <mxGeometry width="100" height="100" relative="1" as="geometry">
                            <Array as="points">
                                <mxPoint x="270" y="945"/>
                                <mxPoint x="503" y="945"/>
                                <mxPoint x="503" y="1126"/>
                            </Array>
                        </mxGeometry>
                    </mxCell>
                </UserObject>
                <UserObject label="" lucidchartObjectId="DcBf.x1tLKpi" id="94">
                    <mxCell style="html=1;jettySize=18;whiteSpace=wrap;fontSize=13;strokeColor=#FFFFFF;strokeWidth=1.5;rounded=1;arcSize=12;edgeStyle=orthogonalEdgeStyle;startArrow=ERmandOne;startSize=10;endArrow=ERmany;endSize=10;exitX=0.728;exitY=1.025;exitPerimeter=0;entryX=0.5;entryY=-0.025;entryPerimeter=0;fontColor=#FFFFFF;" edge="1" parent="1" source="87" target="92">
                        <mxGeometry width="100" height="100" relative="1" as="geometry">
                            <Array as="points"/>
                        </mxGeometry>
                    </mxCell>
                </UserObject>
                <UserObject label="Inventario" lucidchartObjectId="UcBfvdfG~xuZ" id="95">
                    <mxCell style="html=1;overflow=block;blockSpacing=1;whiteSpace=wrap;fontSize=16.7;fontColor=#FFFFFF;align=center;spacing=3.8;strokeColor=#FFFFFF;strokeOpacity=100;rounded=1;absoluteArcSize=1;arcSize=9;strokeWidth=2.3;" vertex="1" parent="1">
                        <mxGeometry x="1350" y="615" width="105" height="45" as="geometry"/>
                    </mxCell>
                </UserObject>
                <UserObject label="" lucidchartObjectId="WfBfbiqljDRY" id="96">
                    <mxCell style="html=1;jettySize=18;whiteSpace=wrap;fontSize=13;strokeColor=#FFFFFF;strokeWidth=1.5;rounded=1;arcSize=12;edgeStyle=orthogonalEdgeStyle;startArrow=ERmandOne;startSize=10;endArrow=ERmany;endSize=10;exitX=1.009;exitY=0.5;exitPerimeter=0;entryX=0.083;entryY=-0.025;entryPerimeter=0;fontColor=#FFFFFF;" edge="1" parent="1" source="90" target="92">
                        <mxGeometry width="100" height="100" relative="1" as="geometry">
                            <Array as="points">
                                <mxPoint x="473" y="998"/>
                                <mxPoint x="473" y="1169"/>
                                <mxPoint x="595" y="1169"/>
                            </Array>
                        </mxGeometry>
                    </mxCell>
                </UserObject>
                <UserObject label="" lucidchartObjectId="vgBfzQ4oiV17" id="97">
                    <mxCell style="html=1;jettySize=18;whiteSpace=wrap;fontSize=13;strokeColor=#FFFFFF;strokeWidth=1.5;rounded=1;arcSize=12;edgeStyle=orthogonalEdgeStyle;startArrow=ERmandOne;startSize=10;endArrow=ERmany;endSize=10;exitX=1.009;exitY=0.5;exitPerimeter=0;entryX=-0.009;entryY=0.472;entryPerimeter=0;fontColor=#FFFFFF;" edge="1" parent="1" source="91" target="92">
                        <mxGeometry width="100" height="100" relative="1" as="geometry">
                            <Array as="points"/>
                        </mxGeometry>
                    </mxCell>
                </UserObject>
                <UserObject label="" lucidchartObjectId="xlBfmtteSCNi" id="98">
                    <mxCell style="html=1;jettySize=18;whiteSpace=wrap;fontSize=13;strokeColor=#FFFFFF;strokeWidth=1.5;rounded=1;arcSize=12;edgeStyle=orthogonalEdgeStyle;startArrow=ERmandOne;startSize=10;endArrow=ERmany;endSize=10;exitX=0.908;exitY=-0.015;exitPerimeter=0;entryX=0.5;entryY=-0.025;entryPerimeter=0;fontColor=#FFFFFF;" edge="1" parent="1" source="67" target="95">
                        <mxGeometry width="100" height="100" relative="1" as="geometry">
                            <Array as="points">
                                <mxPoint x="784" y="597"/>
                                <mxPoint x="870" y="597"/>
                                <mxPoint x="870" y="345"/>
                                <mxPoint x="1358" y="345"/>
                                <mxPoint x="1358" y="584"/>
                                <mxPoint x="1403" y="584"/>
                            </Array>
                        </mxGeometry>
                    </mxCell>
                </UserObject>
                <UserObject label="" lucidchartObjectId="PmBfx1SnIhV7" id="99">
                    <mxCell style="html=1;jettySize=18;whiteSpace=wrap;fontSize=13;strokeColor=#FFFFFF;strokeWidth=1.5;rounded=1;arcSize=12;edgeStyle=orthogonalEdgeStyle;startArrow=ERmandOne;startSize=10;endArrow=ERmany;endSize=10;exitX=0.5;exitY=1.025;exitPerimeter=0;entryX=0.5;entryY=-0.025;entryPerimeter=0;fontColor=#FFFFFF;" edge="1" parent="1" source="95" target="100">
                        <mxGeometry width="100" height="100" relative="1" as="geometry">
                            <Array as="points"/>
                        </mxGeometry>
                    </mxCell>
                </UserObject>
                <UserObject label="MovimientoInventario" lucidchartObjectId="GnBfpLfu1Ddu" id="100">
                    <mxCell style="html=1;overflow=block;blockSpacing=1;whiteSpace=wrap;fontSize=16.7;fontColor=#FFFFFF;align=center;spacing=3.8;strokeColor=#FFFFFF;strokeOpacity=100;rounded=1;absoluteArcSize=1;arcSize=9;strokeWidth=2.3;" vertex="1" parent="1">
                        <mxGeometry x="1350" y="765" width="180" height="45" as="geometry"/>
                    </mxCell>
                </UserObject>
                <UserObject label="" lucidchartObjectId="8nBfvRFSKYPn" id="101">
                    <mxCell style="html=1;jettySize=18;whiteSpace=wrap;fontSize=13;strokeColor=#FFFFFF;strokeWidth=1.5;rounded=1;arcSize=12;edgeStyle=orthogonalEdgeStyle;startArrow=ERmandOne;startSize=10;endArrow=ERmany;endSize=10;exitX=1.005;exitY=0.5;exitPerimeter=0;entryX=0.5;entryY=1.025;entryPerimeter=0;fontColor=#FFFFFF;" edge="1" parent="1" source="87" target="100">
                        <mxGeometry width="100" height="100" relative="1" as="geometry">
                            <Array as="points"/>
                        </mxGeometry>
                    </mxCell>
                </UserObject>
                <UserObject label="" lucidchartObjectId="VoBfwEQj.Uf_" id="102">
                    <mxCell style="html=1;jettySize=18;whiteSpace=wrap;fontSize=13;strokeColor=#FFFFFF;strokeWidth=1.5;rounded=1;arcSize=12;edgeStyle=orthogonalEdgeStyle;startArrow=ERmandOne;startSize=10;endArrow=ERmany;endSize=10;exitX=1.005;exitY=0.5;exitPerimeter=0;entryX=-0.006;entryY=0.5;entryPerimeter=0;fontColor=#FFFFFF;" edge="1" parent="1" source="79" target="100">
                        <mxGeometry width="100" height="100" relative="1" as="geometry">
                            <Array as="points">
                                <mxPoint x="1156" y="495"/>
                                <mxPoint x="1156" y="548"/>
                                <mxPoint x="1320" y="548"/>
                                <mxPoint x="1320" y="788"/>
                            </Array>
                        </mxGeometry>
                    </mxCell>
                </UserObject>
                <UserObject label="Vehiculo" lucidchartObjectId="BvBf1V1v6eV7" id="103">
                    <mxCell style="html=1;overflow=block;blockSpacing=1;whiteSpace=wrap;fontSize=16.7;fontColor=#FFFFFF;align=center;spacing=3.8;strokeColor=#FFFFFF;strokeOpacity=100;rounded=1;absoluteArcSize=1;arcSize=9;strokeWidth=2.3;" vertex="1" parent="1">
                        <mxGeometry x="645" y="945" width="180" height="45" as="geometry"/>
                    </mxCell>
                </UserObject>
                <UserObject label="" lucidchartObjectId=".xBfzx5O8hId" id="104">
                    <mxCell style="html=1;jettySize=18;whiteSpace=wrap;fontSize=13;strokeColor=#FFFFFF;strokeWidth=1.5;rounded=1;arcSize=12;edgeStyle=orthogonalEdgeStyle;startArrow=ERmandOne;startSize=10;endArrow=ERmany;endSize=10;exitX=0.5;exitY=1.025;exitPerimeter=0;entryX=0.667;entryY=-0.025;entryPerimeter=0;fontColor=#FFFFFF;" edge="1" parent="1" source="103" target="87">
                        <mxGeometry width="100" height="100" relative="1" as="geometry">
                            <Array as="points"/>
                        </mxGeometry>
                    </mxCell>
                </UserObject>
                <UserObject label="Tiposervicios" lucidchartObjectId="0zBfUcZKE6SZ" id="105">
                    <mxCell style="html=1;overflow=block;blockSpacing=1;whiteSpace=wrap;fontSize=16.7;fontColor=#FFFFFF;align=center;spacing=3.8;strokeColor=#FFFFFF;strokeOpacity=100;rounded=1;absoluteArcSize=1;arcSize=9;strokeWidth=2.3;" vertex="1" parent="1">
                        <mxGeometry x="1020" y="735" width="120" height="45" as="geometry"/>
                    </mxCell>
                </UserObject>
                <UserObject label="" lucidchartObjectId="aBBfQS-PGsfZ" id="106">
                    <mxCell style="html=1;jettySize=18;whiteSpace=wrap;fontSize=13;strokeColor=#FFFFFF;strokeWidth=1.5;rounded=1;arcSize=12;edgeStyle=orthogonalEdgeStyle;startArrow=ERmandOne;startSize=10;endArrow=ERmany;endSize=10;exitX=-0.005;exitY=0.5;exitPerimeter=0;entryX=0.092;entryY=1.015;entryPerimeter=0;fontColor=#FFFFFF;" edge="1" parent="1" source="87" target="67">
                        <mxGeometry width="100" height="100" relative="1" as="geometry">
                            <Array as="points">
                                <mxPoint x="554" y="1103"/>
                                <mxPoint x="554" y="1065"/>
                                <mxPoint x="638" y="1065"/>
                                <mxPoint x="638" y="735"/>
                                <mxPoint x="686" y="735"/>
                            </Array>
                        </mxGeometry>
                    </mxCell>
                </UserObject>
                <UserObject label="" lucidchartObjectId="6BBffmnKe8ss" id="107">
                    <mxCell style="html=1;jettySize=18;whiteSpace=wrap;fontSize=13;strokeColor=#FFFFFF;strokeWidth=1.5;rounded=1;arcSize=12;edgeStyle=orthogonalEdgeStyle;startArrow=ERmandOne;startSize=10;endArrow=ERmany;endSize=10;exitX=0.926;exitY=1.025;exitPerimeter=0;entryX=0.9;entryY=-0.025;entryPerimeter=0;fontColor=#FFFFFF;" edge="1" parent="1" source="82" target="87">
                        <mxGeometry width="100" height="100" relative="1" as="geometry">
                            <Array as="points"/>
                        </mxGeometry>
                    </mxCell>
                </UserObject>
                <UserObject label="" lucidchartObjectId="0CBf3iezK6Nl" id="108">
                    <mxCell style="html=1;jettySize=18;whiteSpace=wrap;fontSize=13;strokeColor=#FFFFFF;strokeWidth=1.5;rounded=1;arcSize=12;edgeStyle=orthogonalEdgeStyle;startArrow=ERmandOne;startSize=10;endArrow=ERmany;endSize=10;exitX=-0.009;exitY=0.5;exitPerimeter=0;entryX=1.006;entryY=0.5;entryPerimeter=0;fontColor=#FFFFFF;" edge="1" parent="1" source="82" target="103">
                        <mxGeometry width="100" height="100" relative="1" as="geometry">
                            <Array as="points"/>
                        </mxGeometry>
                    </mxCell>
                </UserObject>
                <UserObject label="" lucidchartObjectId="aHBfcISRGBj8" id="109">
                    <mxCell style="html=1;jettySize=18;whiteSpace=wrap;fontSize=13;strokeColor=#FFFFFF;strokeOpacity=100;strokeWidth=1.5;rounded=1;arcSize=12;edgeStyle=orthogonalEdgeStyle;startArrow=ERmandOne;startSize=10;endArrow=ERmany;endSize=10;exitX=0.5;exitY=-0.025;exitPerimeter=0;entryX=0.5;entryY=1.025;entryPerimeter=0;fontColor=#FFFFFF;" edge="1" parent="1" source="68" target="110">
                        <mxGeometry width="100" height="100" relative="1" as="geometry">
                            <Array as="points"/>
                        </mxGeometry>
                    </mxCell>
                </UserObject>
                <UserObject label="personalServicio" lucidchartObjectId="0HBftK.mLJg1" id="110">
                    <mxCell style="html=1;overflow=block;blockSpacing=1;whiteSpace=wrap;fontSize=16.7;fontColor=#FFFFFF;align=center;spacing=3.8;strokeColor=#FFFFFF;strokeOpacity=100;rounded=1;absoluteArcSize=1;arcSize=9;strokeWidth=2.3;" vertex="1" parent="1">
                        <mxGeometry x="930" y="555" width="151" height="45" as="geometry"/>
                    </mxCell>
                </UserObject>
                <UserObject label="" lucidchartObjectId="rIBfRl1pL_yP" id="111">
                    <mxCell style="html=1;jettySize=18;whiteSpace=wrap;fontSize=13;strokeColor=#FFFFFF;strokeWidth=1.5;rounded=1;arcSize=12;edgeStyle=orthogonalEdgeStyle;startArrow=ERmandOne;startSize=10;endArrow=ERmany;endSize=10;exitX=-0.005;exitY=0.5;exitPerimeter=0;entryX=-0.007;entryY=0.5;entryPerimeter=0;fontColor=#FFFFFF;" edge="1" parent="1" source="79" target="110">
                        <mxGeometry width="100" height="100" relative="1" as="geometry">
                            <Array as="points"/>
                        </mxGeometry>
                    </mxCell>
                </UserObject>
                <UserObject label="Tipo Vehiculo" lucidchartObjectId="1JBfOHJQBgz_" id="112">
                    <mxCell style="html=1;overflow=block;blockSpacing=1;whiteSpace=wrap;fontSize=16.7;fontColor=#FFFFFF;align=center;spacing=3.8;strokeColor=#FFFFFF;strokeOpacity=100;rounded=1;absoluteArcSize=1;arcSize=9;strokeWidth=2.3;" vertex="1" parent="1">
                        <mxGeometry x="780" y="825" width="180" height="45" as="geometry"/>
                    </mxCell>
                </UserObject>
                <UserObject label="" lucidchartObjectId="NKBfVMF_msrS" id="113">
                    <mxCell style="html=1;jettySize=18;whiteSpace=wrap;fontSize=13;strokeColor=#FFFFFF;strokeWidth=1.5;rounded=1;arcSize=12;edgeStyle=orthogonalEdgeStyle;startArrow=ERmandOne;startSize=10;endArrow=ERmany;endSize=10;exitX=0.5;exitY=-0.025;exitPerimeter=0;entryX=-0.006;entryY=0.5;entryPerimeter=0;fontColor=#FFFFFF;" edge="1" parent="1" source="103" target="112">
                        <mxGeometry width="100" height="100" relative="1" as="geometry">
                            <Array as="points"/>
                        </mxGeometry>
                    </mxCell>
                </UserObject>
                <UserObject label="" lucidchartObjectId="1KBfEbXpkNY0" id="114">
                    <mxCell style="html=1;jettySize=18;whiteSpace=wrap;fontSize=13;strokeColor=#FFFFFF;strokeWidth=1.5;rounded=1;arcSize=12;edgeStyle=orthogonalEdgeStyle;startArrow=ERmandOne;startSize=10;endArrow=ERmany;endSize=10;exitX=0.5;exitY=-0.025;exitPerimeter=0;entryX=0.5;entryY=1.025;entryPerimeter=0;fontColor=#FFFFFF;" edge="1" parent="1" source="112" target="68">
                        <mxGeometry width="100" height="100" relative="1" as="geometry">
                            <Array as="points"/>
                        </mxGeometry>
                    </mxCell>
                </UserObject>
                <UserObject label="Area " lucidchartObjectId="PLBfMSUYFcBS" id="115">
                    <mxCell style="html=1;overflow=block;blockSpacing=1;whiteSpace=wrap;fontSize=16.7;fontColor=#FFFFFF;align=center;spacing=3.8;strokeColor=#FFFFFF;strokeOpacity=100;rounded=1;absoluteArcSize=1;arcSize=9;strokeWidth=2.3;" vertex="1" parent="1">
                        <mxGeometry x="525" y="300" width="120" height="75" as="geometry"/>
                    </mxCell>
                </UserObject>
                <UserObject label="Estado Maquinaria" lucidchartObjectId="YLBfhcX8xoHO" id="116">
                    <mxCell style="html=1;overflow=block;blockSpacing=1;whiteSpace=wrap;fontSize=16.7;fontColor=#FFFFFF;align=center;spacing=3.8;strokeColor=#FFFFFF;strokeOpacity=100;rounded=1;absoluteArcSize=1;arcSize=9;strokeWidth=2.3;" vertex="1" parent="1">
                        <mxGeometry x="810" y="165" width="120" height="75" as="geometry"/>
                    </mxCell>
                </UserObject>
                <UserObject label="Maquinaria taller" lucidchartObjectId="XMBfvJgync_l" id="117">
                    <mxCell style="html=1;overflow=block;blockSpacing=1;whiteSpace=wrap;fontSize=16.7;fontColor=#FFFFFF;align=center;spacing=3.8;strokeColor=#FFFFFF;strokeOpacity=100;rounded=1;absoluteArcSize=1;arcSize=9;strokeWidth=2.3;" vertex="1" parent="1">
                        <mxGeometry x="630" y="165" width="120" height="75" as="geometry"/>
                    </mxCell>
                </UserObject>
                <UserObject label="" lucidchartObjectId="RQBfPsH6~Mfs" id="118">
                    <mxCell style="html=1;jettySize=18;whiteSpace=wrap;fontSize=13;strokeColor=#FFFFFF;strokeWidth=1.5;rounded=1;arcSize=12;edgeStyle=orthogonalEdgeStyle;startArrow=ERmandOne;startSize=10;endArrow=ERmany;endSize=10;exitX=0.5;exitY=-0.025;exitPerimeter=0;entryX=1.009;entryY=0.5;entryPerimeter=0;fontColor=#FFFFFF;" edge="1" parent="1" source="105" target="68">
                        <mxGeometry width="100" height="100" relative="1" as="geometry">
                            <Array as="points"/>
                        </mxGeometry>
                    </mxCell>
                </UserObject>
                <UserObject label="" lucidchartObjectId="0QBfjn6mVGla" id="119">
                    <mxCell style="html=1;jettySize=18;whiteSpace=wrap;fontSize=13;strokeColor=#FFFFFF;strokeWidth=1.5;rounded=1;arcSize=12;edgeStyle=orthogonalEdgeStyle;startArrow=ERmandOne;startSize=10;endArrow=ERmany;endSize=10;exitX=0.5;exitY=-0.015;exitPerimeter=0;entryX=-0.009;entryY=0.4;entryPerimeter=0;fontColor=#FFFFFF;" edge="1" parent="1" source="67" target="115">
                        <mxGeometry width="100" height="100" relative="1" as="geometry">
                            <Array as="points">
                                <mxPoint x="735" y="420"/>
                                <mxPoint x="494" y="420"/>
                                <mxPoint x="494" y="330"/>
                            </Array>
                        </mxGeometry>
                    </mxCell>
                </UserObject>
                <UserObject label="" lucidchartObjectId="xRBfYMcXfS6p" id="120">
                    <mxCell style="html=1;jettySize=18;whiteSpace=wrap;fontSize=13;strokeColor=#FFFFFF;strokeWidth=1.5;rounded=1;arcSize=12;edgeStyle=orthogonalEdgeStyle;startArrow=ERmandOne;startSize=10;endArrow=ERmany;endSize=10;exitX=0.5;exitY=1.019;exitPerimeter=0;entryX=0.142;entryY=-0.015;entryPerimeter=0;fontColor=#FFFFFF;" edge="1" parent="1" source="63" target="67">
                        <mxGeometry width="100" height="100" relative="1" as="geometry">
                            <Array as="points"/>
                        </mxGeometry>
                    </mxCell>
                </UserObject>
                <UserObject label="" lucidchartObjectId="SRBf.GUvf.Xs" id="121">
                    <mxCell style="html=1;jettySize=18;whiteSpace=wrap;fontSize=13;strokeColor=#FFFFFF;strokeWidth=1.5;rounded=1;arcSize=12;edgeStyle=orthogonalEdgeStyle;startArrow=ERmandOne;startSize=10;endArrow=ERmany;endSize=10;exitX=0.5;exitY=-0.015;exitPerimeter=0;entryX=-0.009;entryY=0.5;entryPerimeter=0;fontColor=#FFFFFF;" edge="1" parent="1" source="115" target="117">
                        <mxGeometry width="100" height="100" relative="1" as="geometry">
                            <Array as="points"/>
                        </mxGeometry>
                    </mxCell>
                </UserObject>
            </root>
        </mxGraphModel>
    </diagram>
</mxfile>